<svg width="25" height="24" viewBox="0 0 25 24" fill="none" xmlns="http://www.w3.org/2000/svg">
<g id="icons8-instagram-96 1">
<path id="Vector" d="M18.1068 22.0693L6.91267 22.08C4.44997 22.0822 2.43336 20.0695 2.43056 17.6068L2.41992 6.41273C2.41768 3.95003 4.43038 1.93342 6.89308 1.93062L18.0872 1.91998C20.5499 1.91775 22.5665 3.93044 22.5693 6.39314L22.5799 17.5872C22.5827 20.0505 20.5695 22.0671 18.1068 22.0693Z" fill="url(#paint0_radial_564_511)"/>
<path id="Vector_2" d="M18.1068 22.0693L6.91267 22.08C4.44997 22.0822 2.43336 20.0695 2.43056 17.6068L2.41992 6.41273C2.41768 3.95003 4.43038 1.93342 6.89308 1.93062L18.0872 1.91998C20.5499 1.91775 22.5665 3.93044 22.5693 6.39314L22.5799 17.5872C22.5827 20.0505 20.5695 22.0671 18.1068 22.0693Z" fill="url(#paint1_radial_564_511)"/>
<path id="Vector_3" d="M12.5002 15.84C10.3832 15.84 8.66016 14.1175 8.66016 12C8.66016 9.88249 10.3832 8.15997 12.5002 8.15997C14.6171 8.15997 16.3402 9.88249 16.3402 12C16.3402 14.1175 14.6171 15.84 12.5002 15.84ZM12.5002 9.25712C10.9877 9.25712 9.7573 10.4876 9.7573 12C9.7573 13.5124 10.9877 14.7428 12.5002 14.7428C14.0126 14.7428 15.243 13.5124 15.243 12C15.243 10.4876 14.0126 9.25712 12.5002 9.25712Z" fill="white"/>
<path id="Vector_4" d="M16.6999 8.64002C17.1638 8.64002 17.5399 8.26394 17.5399 7.80002C17.5399 7.3361 17.1638 6.96002 16.6999 6.96002C16.2359 6.96002 15.8599 7.3361 15.8599 7.80002C15.8599 8.26394 16.2359 8.64002 16.6999 8.64002Z" fill="white"/>
<path id="Vector_5" d="M15.8229 19.2H9.17673C7.03944 19.2 5.2998 17.4609 5.2998 15.3231V8.67691C5.2998 6.53906 7.03944 4.79999 9.17673 4.79999H15.8229C17.9602 4.79999 19.6998 6.53906 19.6998 8.67691V15.3231C19.6998 17.4609 17.9602 19.2 15.8229 19.2ZM9.17673 5.90768C7.64977 5.90768 6.4075 7.14996 6.4075 8.67691V15.3231C6.4075 16.85 7.64977 18.0923 9.17673 18.0923H15.8229C17.3498 18.0923 18.5921 16.85 18.5921 15.3231V8.67691C18.5921 7.14996 17.3498 5.90768 15.8229 5.90768H9.17673Z" fill="white"/>
</g>
<defs>
<radialGradient id="paint0_radial_564_511" cx="0" cy="0" r="1" gradientUnits="userSpaceOnUse" gradientTransform="translate(9.91437 22.0945) scale(25.1302 25.1302)">
<stop stop-color="#FFDD55"/>
<stop offset="0.328" stop-color="#FF543F"/>
<stop offset="0.348" stop-color="#FC5245"/>
<stop offset="0.504" stop-color="#E64771"/>
<stop offset="0.643" stop-color="#D53E91"/>
<stop offset="0.761" stop-color="#CC39A4"/>
<stop offset="0.841" stop-color="#C837AB"/>
</radialGradient>
<radialGradient id="paint1_radial_564_511" cx="0" cy="0" r="1" gradientUnits="userSpaceOnUse" gradientTransform="translate(5.66397 1.66829) scale(16.6865 11.1182)">
<stop stop-color="#4168C9"/>
<stop offset="0.999" stop-color="#4168C9" stop-opacity="0"/>
</radialGradient>
</defs>
</svg>
