<svg width="25" height="24" viewBox="0 0 25 24" fill="none" xmlns="http://www.w3.org/2000/svg">
<g id="icons8-linkedin-96 1">
<path id="Vector" d="M22.5799 19.28C22.5799 20.8267 21.3266 22.08 19.7799 22.08H5.21992C3.67376 22.08 2.41992 20.8267 2.41992 19.28V4.71998C2.41992 3.17326 3.67376 1.91998 5.21992 1.91998H19.7799C21.3266 1.91998 22.5799 3.17326 22.5799 4.71998V19.28Z" fill="#0078D4"/>
<path id="Vector_2" opacity="0.05" d="M15.8229 19.2V13.6067C15.8229 12.6712 15.3693 12.1124 14.6089 12.1124C14.1575 12.1124 13.8257 12.3666 13.6236 12.8679C13.6141 12.9033 13.6009 13.0479 13.6064 13.4848L13.6075 19.2H9.73057V8.67691H13.6075V9.26454C14.1735 8.87408 14.8675 8.67691 15.6778 8.67691C18.1961 8.67691 19.6993 10.39 19.6993 13.2594L19.6998 19.2H15.8229ZM5.2998 19.2V8.67691H7.21445C6.1051 8.67691 5.2998 7.86165 5.2998 6.7379C5.2998 5.61525 6.11839 4.79999 7.24602 4.79999C8.36036 4.79999 9.15402 5.59254 9.17673 6.72682C9.17673 7.85888 8.35759 8.67691 7.22996 8.67691H9.17673V19.2H5.2998Z" fill="black"/>
<path id="Vector_3" opacity="0.07" d="M16.1192 18.96V13.6153C16.1192 12.5167 15.5452 11.8346 14.6203 11.8346C13.8993 11.8346 13.5429 12.3424 13.3714 12.7684C13.3258 12.8792 13.3319 13.319 13.3341 13.5067L13.3352 18.96H9.99444V8.93758H13.3352V9.84962C13.7779 9.39137 14.4906 8.93758 15.695 8.93758C18.0519 8.93758 19.4595 10.5556 19.4595 13.2661L19.46 18.96H16.1192ZM5.54004 18.96V8.93758H8.88084V18.96H5.54004ZM7.1865 8.38078C6.2327 8.38078 5.54004 7.6781 5.54004 6.70982C5.54004 5.7421 6.24606 5.03998 7.21823 5.03998C8.17816 5.03998 8.86135 5.72429 8.88084 6.70425C8.88084 7.6781 8.17482 8.38078 7.20209 8.38078H7.1865Z" fill="black"/>
<path id="Vector_4" d="M5.77979 9.20003H8.57979V18.72H5.77979V9.20003ZM7.17138 8.08003H7.15571C6.32019 8.08003 5.77979 7.45731 5.77979 6.67947C5.77979 5.88483 6.33699 5.28003 7.18763 5.28003C8.03939 5.28003 8.56411 5.88483 8.57979 6.67947C8.57979 7.45675 8.03938 8.08003 7.17138 8.08003ZM19.2198 18.72H16.4198V13.6246C16.4198 12.3937 15.7338 11.5537 14.6323 11.5537C13.7917 11.5537 13.337 12.1204 13.1163 12.6681C13.0357 12.8641 13.0598 13.4062 13.0598 13.68V18.72H10.2598V9.20003H13.0598V10.665C13.4635 10.04 14.0958 9.20003 15.7131 9.20003C17.7167 9.20003 19.2192 10.46 19.2192 13.2735L19.2198 18.72Z" fill="white"/>
</g>
</svg>
