<svg width="25" height="24" viewBox="0 0 25 24" fill="none" xmlns="http://www.w3.org/2000/svg">
<g id="icons8-twitterx-100 1">
<path id="Vector" d="M5.77992 1.91998C3.92424 1.91998 2.41992 3.4243 2.41992 5.27998C2.41992 7.13566 2.41992 18.72 2.41992 18.72C2.41992 20.5757 3.92424 22.08 5.77992 22.08H19.2199C21.0756 22.08 22.5799 20.5757 22.5799 18.72V5.27998C22.5799 3.4243 21.0756 1.91998 19.2199 1.91998H5.77992ZM6.78117 6.23998H10.5912L13.2968 10.0847L16.5799 6.23998H17.7799L13.8387 10.8544L18.6987 17.76H14.8896L11.7499 13.2994L7.93992 17.76H6.73992L11.208 12.5297L6.78117 6.23998ZM8.61867 7.19998L15.3902 16.8H16.8612L10.0896 7.19998H8.61867Z" fill="black"/>
</g>
</svg>
