<svg width="32" height="32" viewBox="0 0 32 32" fill="none" xmlns="http://www.w3.org/2000/svg">
<mask id="mask0_22_8837" style="mask-type:luminance" maskUnits="userSpaceOnUse" x="-6" y="0" width="44" height="32">
<rect x="-5.33398" width="42.6667" height="32" fill="white"/>
</mask>
<g mask="url(#mask0_22_8837)">
<path fill-rule="evenodd" clip-rule="evenodd" d="M-5.33398 0H37.3327V32H-5.33398V0Z" fill="#F7FCFF"/>
<path fill-rule="evenodd" clip-rule="evenodd" d="M-5.33398 19.5555V22.2222H37.3327V19.5555H-5.33398Z" fill="#E31D1C"/>
<path fill-rule="evenodd" clip-rule="evenodd" d="M-5.33398 24.4445V27.1111H37.3327V24.4445H-5.33398Z" fill="#E31D1C"/>
<path fill-rule="evenodd" clip-rule="evenodd" d="M-5.33398 9.77783V12.4445H37.3327V9.77783H-5.33398Z" fill="#E31D1C"/>
<path fill-rule="evenodd" clip-rule="evenodd" d="M-5.33398 29.3334V32H37.3327V29.3334H-5.33398Z" fill="#E31D1C"/>
<path fill-rule="evenodd" clip-rule="evenodd" d="M-5.33398 14.6666V17.3333H37.3327V14.6666H-5.33398Z" fill="#E31D1C"/>
<path fill-rule="evenodd" clip-rule="evenodd" d="M-5.33398 0V2.66667H37.3327V0H-5.33398Z" fill="#E31D1C"/>
<path fill-rule="evenodd" clip-rule="evenodd" d="M-5.33398 4.88892V7.55558H37.3327V4.88892H-5.33398Z" fill="#E31D1C"/>
<rect x="-5.33398" width="26.6667" height="17.3333" fill="#2E42A5"/>
<path fill-rule="evenodd" clip-rule="evenodd" d="M-3.03835 3.91827L-4.00619 4.59679L-3.67944 3.38931L-4.53906 2.62409H-3.41628L-3.03971 1.63867L-2.59815 2.62409H-1.641L-2.39305 3.38931L-2.1019 4.59679L-3.03835 3.91827ZM2.29498 3.91827L1.32714 4.59679L1.65389 3.38931L0.794271 2.62409H1.91705L2.29363 1.63867L2.73519 2.62409H3.69233L2.94028 3.38931L3.23143 4.59679L2.29498 3.91827ZM6.66047 4.59679L7.62831 3.91827L8.56476 4.59679L8.27361 3.38931L9.02566 2.62409H8.06852L7.62696 1.63867L7.25039 2.62409H6.1276L6.98723 3.38931L6.66047 4.59679ZM12.9616 3.91827L11.9938 4.59679L12.3206 3.38931L11.4609 2.62409H12.5837L12.9603 1.63867L13.4019 2.62409H14.359L13.6069 3.38931L13.8981 4.59679L12.9616 3.91827ZM-4.00619 9.93012L-3.03835 9.25161L-2.1019 9.93012L-2.39305 8.72264L-1.641 7.95743H-2.59815L-3.03971 6.972L-3.41628 7.95743H-4.53906L-3.67944 8.72264L-4.00619 9.93012ZM2.29498 9.25161L1.32714 9.93012L1.65389 8.72264L0.794271 7.95743H1.91705L2.29363 6.972L2.73519 7.95743H3.69233L2.94028 8.72264L3.23143 9.93012L2.29498 9.25161ZM6.66047 9.93012L7.62831 9.25161L8.56476 9.93012L8.27361 8.72264L9.02566 7.95743H8.06852L7.62696 6.972L7.25039 7.95743H6.1276L6.98723 8.72264L6.66047 9.93012ZM12.9616 9.25161L11.9938 9.93012L12.3206 8.72264L11.4609 7.95743H12.5837L12.9603 6.972L13.4019 7.95743H14.359L13.6069 8.72264L13.8981 9.93012L12.9616 9.25161ZM-4.00619 15.2635L-3.03835 14.5849L-2.1019 15.2635L-2.39305 14.056L-1.641 13.2908H-2.59815L-3.03971 12.3053L-3.41628 13.2908H-4.53906L-3.67944 14.056L-4.00619 15.2635ZM2.29498 14.5849L1.32714 15.2635L1.65389 14.056L0.794271 13.2908H1.91705L2.29363 12.3053L2.73519 13.2908H3.69233L2.94028 14.056L3.23143 15.2635L2.29498 14.5849ZM6.66047 15.2635L7.62831 14.5849L8.56476 15.2635L8.27361 14.056L9.02566 13.2908H8.06852L7.62696 12.3053L7.25039 13.2908H6.1276L6.98723 14.056L6.66047 15.2635ZM12.9616 14.5849L11.9938 15.2635L12.3206 14.056L11.4609 13.2908H12.5837L12.9603 12.3053L13.4019 13.2908H14.359L13.6069 14.056L13.8981 15.2635L12.9616 14.5849ZM17.3271 4.59679L18.295 3.91827L19.2314 4.59679L18.9403 3.38931L19.6923 2.62409H18.7352L18.2936 1.63867L17.9171 2.62409H16.7943L17.6539 3.38931L17.3271 4.59679ZM18.295 9.25161L17.3271 9.93012L17.6539 8.72264L16.7943 7.95743H17.9171L18.2936 6.972L18.7352 7.95743H19.6923L18.9403 8.72264L19.2314 9.93012L18.295 9.25161ZM17.3271 15.2635L18.295 14.5849L19.2314 15.2635L18.9403 14.056L19.6923 13.2908H18.7352L18.2936 12.3053L17.9171 13.2908H16.7943L17.6539 14.056L17.3271 15.2635ZM-0.371687 6.58494L-1.33953 7.26346L-1.01277 6.05598L-1.8724 5.29076H-0.749613L-0.37304 4.30534L0.0685215 5.29076H1.02566L0.273614 6.05598L0.564763 7.26346L-0.371687 6.58494ZM3.99381 7.26346L4.96165 6.58494L5.8981 7.26346L5.60695 6.05598L6.359 5.29076H5.40185L4.96029 4.30534L4.58372 5.29076H3.46094L4.32056 6.05598L3.99381 7.26346ZM10.295 6.58494L9.32714 7.26346L9.65389 6.05598L8.79427 5.29076H9.91705L10.2936 4.30534L10.7352 5.29076H11.6923L10.9403 6.05598L11.2314 7.26346L10.295 6.58494ZM-1.33953 12.5968L-0.371687 11.9183L0.564763 12.5968L0.273614 11.3893L1.02566 10.6241H0.0685215L-0.37304 9.63867L-0.749613 10.6241H-1.8724L-1.01277 11.3893L-1.33953 12.5968ZM4.96165 11.9183L3.99381 12.5968L4.32056 11.3893L3.46094 10.6241H4.58372L4.96029 9.63867L5.40185 10.6241H6.359L5.60695 11.3893L5.8981 12.5968L4.96165 11.9183ZM9.32714 12.5968L10.295 11.9183L11.2314 12.5968L10.9403 11.3893L11.6923 10.6241H10.7352L10.2936 9.63867L9.91705 10.6241H8.79427L9.65389 11.3893L9.32714 12.5968ZM15.6283 6.58494L14.6605 7.26346L14.9872 6.05598L14.1276 5.29076H15.2504L15.627 4.30534L16.0685 5.29076H17.0257L16.2736 6.05598L16.5648 7.26346L15.6283 6.58494ZM14.6605 12.5968L15.6283 11.9183L16.5648 12.5968L16.2736 11.3893L17.0257 10.6241H16.0685L15.627 9.63867L15.2504 10.6241H14.1276L14.9872 11.3893L14.6605 12.5968Z" fill="#F7FCFF"/>
</g>
</svg>
