<?xml version="1.0" standalone="no"?>
<!DOCTYPE svg PUBLIC "-//W3C//DTD SVG 20010904//EN"
 "http://www.w3.org/TR/2001/REC-SVG-20010904/DTD/svg10.dtd">
<svg version="1.0" xmlns="http://www.w3.org/2000/svg"
 width="243.000000pt" height="243.000000pt" viewBox="0 0 243.000000 243.000000"
 preserveAspectRatio="xMidYMid meet">
<metadata>
Created by potrace 1.14, written by Peter Selinger 2001-2017
</metadata>
<g transform="translate(0.000000,243.000000) scale(0.100000,-0.100000)"
fill="#000000" stroke="none">
<path d="M1601 2333 c-5 -21 -11 -47 -14 -58 -3 -11 -28 -96 -56 -190 -65
-214 -63 -208 -175 -585 l-93 -315 51 -16 c102 -32 166 -76 222 -155 175 -246
1 -591 -304 -603 -163 -6 -314 91 -376 244 -35 84 -32 214 6 296 48 104 139
182 251 214 31 9 57 19 57 22 0 6 -29 104 -216 733 -53 179 -101 341 -106 360
-15 55 -27 57 -16 3 5 -26 38 -214 74 -418 35 -203 67 -381 69 -395 3 -14 9
-52 15 -85 6 -33 13 -72 16 -86 5 -24 -1 -31 -57 -65 -157 -95 -250 -258 -250
-439 1 -83 5 -110 30 -176 79 -206 272 -339 494 -339 234 0 448 171 501 400
18 74 14 187 -7 260 -35 118 -151 262 -246 305 -25 11 -41 25 -41 35 0 16 7
60 41 250 14 77 16 90 23 135 4 22 11 63 16 90 5 28 12 64 14 80 12 78 39 230
56 320 10 55 21 118 24 140 4 22 9 48 12 58 3 9 3 17 0 17 -3 0 -9 -17 -15
-37z"/>
<path d="M800 1457 c-59 -35 -140 -108 -197 -176 -146 -176 -205 -434 -152
-662 109 -464 606 -722 1061 -550 122 47 281 173 358 286 176 256 178 608 6
867 -74 112 -262 277 -286 251 -4 -4 -12 -34 -17 -66 -10 -57 -9 -59 16 -74
62 -38 177 -169 213 -243 161 -326 37 -707 -284 -872 -364 -187 -805 -2 -928
389 -47 150 -31 336 41 480 40 79 133 189 193 228 25 17 46 38 46 47 0 29 -21
118 -28 117 -4 0 -23 -10 -42 -22z"/>
</g>
</svg>
