<svg width="20" height="20" viewBox="0 0 20 20" fill="none" xmlns="http://www.w3.org/2000/svg">
<g id="vuesax">
<g id="vuesax/bold/tick-circle">
<g id="tick-circle">
<path id="Vector" d="M10.0003 1.66667C5.40866 1.66667 1.66699 5.40834 1.66699 10C1.66699 14.5917 5.40866 18.3333 10.0003 18.3333C14.592 18.3333 18.3337 14.5917 18.3337 10C18.3337 5.40834 14.592 1.66667 10.0003 1.66667ZM13.9837 8.08334L9.25866 12.8083C9.14199 12.925 8.98366 12.9917 8.81699 12.9917C8.65033 12.9917 8.49199 12.925 8.37533 12.8083L6.01699 10.45C5.77533 10.2083 5.77533 9.80834 6.01699 9.56667C6.25866 9.325 6.65866 9.325 6.90033 9.56667L8.81699 11.4833L13.1003 7.20001C13.342 6.95834 13.742 6.95834 13.9837 7.20001C14.2253 7.44167 14.2253 7.83334 13.9837 8.08334Z" fill="#92282A"/>
</g>
</g>
</g>
</svg>
