<svg width="20" height="20" viewBox="0 0 20 20" fill="none" xmlns="http://www.w3.org/2000/svg">
<g id="vuesax">
<g id="vuesax/bold/close-circle">
<g id="close-circle">
<path id="Vector" d="M10.0003 1.66666C5.40866 1.66666 1.66699 5.40833 1.66699 10C1.66699 14.5917 5.40866 18.3333 10.0003 18.3333C14.592 18.3333 18.3337 14.5917 18.3337 10C18.3337 5.40833 14.592 1.66666 10.0003 1.66666ZM12.8003 11.9167C13.042 12.1583 13.042 12.5583 12.8003 12.8C12.6753 12.925 12.517 12.9833 12.3587 12.9833C12.2003 12.9833 12.042 12.925 11.917 12.8L10.0003 10.8833L8.08366 12.8C7.95866 12.925 7.80033 12.9833 7.64199 12.9833C7.48366 12.9833 7.32533 12.925 7.20033 12.8C6.95866 12.5583 6.95866 12.1583 7.20033 11.9167L9.11699 10L7.20033 8.08333C6.95866 7.84166 6.95866 7.44166 7.20033 7.2C7.44199 6.95833 7.84199 6.95833 8.08366 7.2L10.0003 9.11666L11.917 7.2C12.1587 6.95833 12.5587 6.95833 12.8003 7.2C13.042 7.44166 13.042 7.84166 12.8003 8.08333L10.8837 10L12.8003 11.9167Z" fill="#92282A"/>
</g>
</g>
</g>
</svg>
